<?xml version="1.0" standalone="no"?>
<!DOCTYPE svg PUBLIC "-//W3C//DTD SVG 20010904//EN"
 "http://www.w3.org/TR/2001/REC-SVG-20010904/DTD/svg10.dtd">
<svg version="1.0" xmlns="http://www.w3.org/2000/svg"
 width="931.000000pt" height="633.000000pt" viewBox="0 0 931.000000 633.000000"
 preserveAspectRatio="xMidYMid meet">

<g transform="translate(0.000000,633.000000) scale(0.100000,-0.100000)"
fill="#000000" stroke="none">
<path d="M0 3165 l0 -3165 4655 0 4655 0 0 3165 0 3165 -4655 0 -4655 0 0
-3165z m6205 1448 c4 -10 10 -69 13 -130 l5 -113 102 7 c161 9 256 -16 351
-93 81 -65 139 -197 132 -295 -5 -70 -22 -71 -132 -6 -185 111 -423 227 -465
227 -5 0 -12 -28 -16 -62 -38 -335 -180 -878 -299 -1140 -17 -39 -22 -58 -13
-59 262 -15 571 100 779 290 48 45 67 70 72 95 6 29 36 72 36 51 0 -5 10 0 21
11 22 19 22 19 15 -8 -12 -50 9 -29 44 43 43 91 136 254 169 298 58 78 164
114 219 75 33 -23 28 -44 -11 -44 -48 0 -97 -17 -124 -42 -33 -30 -30 -69 17
-231 22 -76 40 -148 40 -160 0 -38 12 -67 27 -67 18 0 93 38 93 48 0 4 18 27
40 52 29 33 39 40 40 27 0 -28 -119 -143 -157 -151 -28 -6 -33 -13 -43 -57
-27 -113 -117 -161 -234 -127 -60 18 -149 109 -172 175 l-18 52 -81 -78 c-189
-181 -468 -303 -775 -336 -54 -6 -56 -7 -89 -63 -69 -112 -159 -192 -218 -192
-45 0 -42 17 6 30 62 16 166 115 212 202 11 20 14 18 -108 38 -78 13 -170 52
-220 94 l-32 27 -21 -41 c-29 -56 -98 -130 -137 -146 -98 -42 -221 12 -315
138 -97 129 -105 289 -43 858 14 124 28 249 31 278 4 34 10 52 17 49 9 -3 14
-95 18 -333 3 -181 9 -369 13 -419 34 -413 130 -611 267 -552 40 17 119 94
144 140 17 32 17 32 -19 87 -54 82 -70 145 -70 285 0 144 15 208 84 350 49
102 123 213 208 312 59 69 197 185 271 226 l56 32 -94 3 c-194 6 -435 -88
-488 -191 -8 -17 -18 -54 -22 -81 -3 -27 -11 -51 -18 -53 -19 -7 -53 58 -53
100 0 98 85 163 279 214 79 21 126 26 266 30 158 4 177 6 270 36 55 18 103 37
108 42 4 6 5 67 3 138 -4 119 2 151 19 110z m-3166 -89 l1 -61 163 -6 c175 -7
260 -21 383 -62 152 -51 275 -136 329 -229 85 -146 39 -319 -119 -447 -130
-107 -322 -178 -550 -205 -72 -8 -135 -16 -139 -17 -4 -1 14 -31 40 -67 205
-281 349 -467 414 -534 l76 -79 49 27 c91 50 90 48 57 97 -40 61 -39 131 2
190 58 82 209 164 392 213 l88 23 68 94 c192 268 363 600 443 859 40 132 60
164 50 80 -22 -175 -206 -566 -415 -880 -42 -63 -80 -121 -84 -127 -6 -10 5
-13 43 -13 l51 0 83 128 c45 70 114 183 153 252 265 471 325 705 193 757 -48
19 -52 33 -10 33 41 0 90 -22 116 -51 36 -42 47 -84 42 -167 -12 -188 -153
-483 -398 -827 -31 -44 -60 -86 -64 -92 -5 -10 32 -11 178 -6 136 4 186 3 186
-5 0 -6 -10 -14 -22 -16 -18 -4 -239 -21 -366 -29 -15 -1 -51 -36 -116 -112
-52 -60 -145 -159 -207 -220 l-113 -110 -2 -56 -1 -56 53 -12 c75 -17 71 -35
-6 -27 -58 7 -59 6 -74 -22 -22 -43 -80 -90 -128 -103 -51 -13 -126 -7 -188
16 -51 19 -52 19 -135 12 -94 -9 -142 29 -116 93 l10 25 0 -26 c1 -43 23 -61
78 -66 28 -3 53 -1 57 5 3 5 -12 22 -34 37 -66 46 -177 170 -245 273 -34 54
-107 186 -161 295 -85 169 -102 197 -121 197 -13 0 -23 -4 -23 -8 0 -17 -103
-198 -167 -295 -80 -122 -223 -272 -315 -334 -178 -118 -413 -143 -546 -59
-201 127 -216 468 -30 672 66 71 133 105 220 112 36 2 78 2 91 -2 42 -10 87
-54 87 -84 l0 -27 -13 25 c-44 89 -219 67 -310 -41 -44 -51 -101 -166 -117
-238 -20 -87 -9 -228 24 -295 48 -99 131 -149 243 -147 159 2 315 104 470 306
81 107 253 388 253 414 0 10 -109 45 -116 38 -2 -2 -29 -50 -59 -106 -179
-333 -411 -580 -550 -585 -53 -2 -39 17 30 39 34 11 81 34 104 50 68 46 201
193 273 301 61 90 177 298 178 316 0 4 -17 16 -38 27 -86 44 -125 124 -86 179
37 53 130 68 189 32 l32 -20 21 56 c56 145 118 399 129 530 l6 70 -76 -7
c-265 -25 -498 -116 -636 -249 -69 -66 -94 -115 -99 -196 -5 -70 22 -145 66
-187 29 -28 142 -87 166 -87 20 0 46 -11 46 -19 0 -17 -113 9 -169 39 -126 68
-211 183 -211 287 0 68 18 110 72 169 132 143 379 236 730 274 54 5 102 10
108 10 6 0 10 29 10 73 0 41 3 77 7 81 12 12 22 -26 22 -90z m-82 -2925 c8 -8
1 -25 -22 -60 -40 -59 -93 -193 -108 -271 -6 -32 -14 -58 -18 -58 -4 0 -12 15
-18 33 -14 43 14 147 74 275 44 92 63 110 92 81z m2083 -4 c10 -12 5 -24 -29
-69 -38 -48 -91 -144 -91 -163 0 -4 11 8 24 27 27 40 67 65 90 57 28 -11 20
-65 -15 -99 -36 -37 -34 -60 11 -111 33 -38 30 -47 -11 -47 -22 0 -30 7 -42
38 -32 82 -32 98 7 136 34 32 47 66 27 66 -5 0 -26 -19 -47 -42 -21 -24 -41
-42 -44 -41 -3 1 -6 -6 -7 -15 -1 -9 -8 -39 -15 -65 -11 -37 -17 -45 -25 -35
-32 40 -17 109 58 261 57 115 80 137 109 102z m1739 6 c10 -7 6 -19 -22 -60
-42 -60 -95 -192 -110 -273 -6 -32 -14 -58 -18 -58 -3 0 -12 14 -19 31 -16 37
1 107 57 239 55 130 71 147 112 121z m95 3 c22 -8 20 -17 -10 -61 -51 -76
-114 -243 -114 -304 0 -16 -4 -29 -10 -29 -19 0 -32 43 -26 87 6 49 75 230
106 281 20 33 27 36 54 26z m-1250 -44 l25 -9 -19 -54 c-23 -65 -40 -164 -40
-234 0 -44 -3 -53 -17 -53 -40 1 -46 14 -39 89 l7 71 -49 0 -50 0 -20 -47
c-11 -27 -23 -63 -27 -80 -7 -36 -16 -41 -35 -18 -10 12 -6 27 18 79 27 57 28
65 14 69 -13 3 -11 6 9 15 15 6 36 26 48 46 23 36 126 136 141 136 5 0 20 -4
34 -10z m318 -20 c26 -27 30 -36 25 -67 -4 -20 -16 -46 -28 -59 -29 -31 -102
-58 -137 -51 -28 6 -29 4 -55 -71 -19 -58 -30 -77 -44 -77 -32 0 -25 36 31
170 30 71 53 131 51 133 -2 2 -18 -4 -35 -13 -30 -15 -34 -15 -48 -1 -12 11
-13 19 -5 27 21 21 89 38 151 39 58 0 66 -3 94 -30z m157 11 c11 -7 7 -21 -18
-72 -31 -65 -71 -202 -71 -246 0 -30 -20 -26 -36 6 -18 36 17 182 68 284 19
37 32 44 57 28z m-2120 -40 c12 -7 10 -14 -8 -37 l-22 -28 23 -10 c22 -10 22
-10 -8 -14 -27 -3 -34 -10 -49 -49 -10 -25 -20 -66 -23 -89 -5 -47 2 -53 39
-34 13 8 19 7 19 0 0 -20 -48 -34 -75 -22 -37 17 -41 37 -20 116 12 50 14 71
6 74 -18 6 -13 22 8 22 10 0 30 17 45 40 27 41 40 47 65 31z m2977 -66 c16
-25 13 -75 -5 -75 -5 0 -7 9 -4 20 8 30 -25 25 -37 -6 -15 -39 -12 -64 8 -64
16 -1 16 -1 0 -11 -10 -5 -18 -19 -18 -29 0 -62 -61 -104 -101 -71 -21 16 -21
21 -10 49 8 18 27 37 48 47 34 16 35 18 28 64 -5 39 -3 51 15 74 27 34 55 35
76 2z m-4596 -9 c15 -20 9 -56 -12 -70 -21 -13 -36 0 -20 16 13 13 16 48 4 48
-16 0 -53 -33 -67 -60 -17 -33 -20 -106 -5 -115 6 -4 26 3 45 14 41 24 47 12
9 -18 -35 -27 -59 -26 -89 4 -19 18 -25 35 -25 70 0 38 6 51 36 85 30 33 43
40 74 40 21 0 43 -7 50 -14z m170 -8 c49 -36 35 -117 -29 -171 -57 -48 -121
-25 -121 43 1 58 66 150 107 150 7 0 27 -10 43 -22z m200 0 c49 -36 35 -117
-29 -171 -57 -48 -121 -26 -121 42 0 56 67 151 107 151 7 0 27 -10 43 -22z
m555 -5 c-17 -73 -127 -202 -161 -189 -14 5 -15 15 -10 56 4 28 5 50 3 50 -2
0 -21 -25 -43 -55 -59 -83 -83 -69 -63 38 15 83 33 117 64 117 29 0 29 2 11
-41 -7 -19 -16 -49 -20 -68 l-6 -35 35 40 c20 21 41 51 46 67 8 18 18 27 34
27 l22 0 -18 -67 c-11 -37 -19 -74 -19 -82 0 -30 61 58 78 111 13 44 22 58 36
58 15 0 17 -5 11 -27z m127 10 c17 -16 17 -17 -12 -34 -44 -27 -95 -118 -76
-136 11 -11 47 30 83 94 48 86 84 86 48 -1 -9 -20 -17 -55 -18 -79 -2 -29 -8
-43 -19 -45 -20 -4 -32 29 -23 61 5 17 2 15 -17 -10 -32 -44 -63 -60 -83 -43
-35 29 -4 134 54 183 38 32 39 32 63 10z m198 9 c0 -5 -13 -33 -29 -63 -31
-58 -48 -119 -33 -119 15 0 39 32 79 105 27 50 45 71 61 73 12 2 22 -1 22 -6
0 -19 -80 -225 -100 -257 -36 -58 -86 -95 -128 -95 -21 0 -47 7 -58 16 -18 15
-18 15 9 9 61 -13 138 64 171 172 6 18 1 16 -28 -13 -30 -30 -38 -34 -56 -24
-31 17 -34 34 -16 90 26 78 54 120 82 120 13 0 24 -4 24 -8z m514 -7 c3 -8 12
-15 21 -15 23 0 19 -74 -6 -120 -62 -109 -181 -81 -149 35 23 81 115 149 134
100z m272 1 c3 -8 -9 -40 -27 -72 l-32 -59 57 63 c40 42 65 62 81 62 35 0 39
-16 15 -57 -31 -53 -19 -50 29 7 33 39 49 50 72 50 36 0 37 -15 4 -80 -30 -58
-33 -100 -8 -100 12 0 14 -3 6 -11 -6 -6 -23 -9 -39 -7 -25 3 -29 8 -32 36 -2
19 5 50 16 72 28 57 1 39 -59 -41 -43 -55 -55 -66 -67 -57 -18 15 -8 71 21
117 42 69 -41 -12 -94 -91 -23 -34 -28 -37 -39 -23 -17 20 -8 69 26 145 19 43
32 60 46 60 10 0 21 -6 24 -14z m384 -16 c0 -6 -4 -10 -9 -10 -31 0 -110 -125
-91 -144 12 -12 43 23 83 96 31 55 49 69 62 48 3 -5 -2 -24 -11 -42 -9 -18
-18 -55 -20 -83 -2 -41 -6 -50 -21 -50 -13 0 -19 10 -23 35 l-5 34 -17 -26
c-27 -41 -56 -53 -78 -33 -53 48 51 227 112 194 10 -5 18 -14 18 -19z m450 15
c22 -27 -5 -81 -61 -116 -29 -20 -49 -40 -49 -51 0 -24 37 -23 70 2 33 26 48
25 24 -1 -32 -35 -69 -50 -99 -39 -60 23 -55 107 12 181 38 42 80 52 103 24z
m1140 -4 c14 -27 -4 -71 -29 -71 -19 0 -19 1 -3 29 21 37 11 49 -22 27 -44
-29 -79 -123 -56 -151 10 -12 18 -12 52 6 50 26 47 5 -4 -24 -32 -19 -39 -20
-62 -8 -55 30 -56 115 -1 175 27 30 39 36 73 36 31 0 44 -5 52 -19z m141 9
c26 -15 24 -23 -12 -44 -36 -21 -85 -114 -68 -131 12 -12 36 16 81 98 30 53
46 66 60 51 3 -3 -3 -30 -13 -59 -10 -30 -19 -71 -19 -90 0 -29 -3 -36 -17
-33 -12 2 -19 14 -21 36 l-3 32 -34 -36 c-38 -40 -53 -40 -74 -2 -13 23 -13
31 3 73 16 40 75 115 92 115 3 0 14 -5 25 -10z"/>
<path d="M6227 4323 c-14 -4 -17 -13 -15 -40 l3 -35 95 -28 c116 -33 259 -88
337 -129 69 -37 93 -39 93 -11 0 57 -84 145 -180 189 -101 46 -262 73 -333 54z"/>
<path d="M6101 4304 c-87 -23 -85 -30 12 -40 l67 -7 0 32 c0 35 -3 36 -79 15z"/>
<path d="M5930 4237 c-277 -164 -470 -468 -496 -776 -21 -252 100 -438 323
-495 34 -9 67 -16 76 -16 34 0 152 318 221 600 59 238 115 549 116 646 0 30
-1 31 -75 47 -95 21 -122 20 -165 -6z"/>
<path d="M6988 3610 c-27 -36 -158 -269 -158 -282 0 -13 166 -89 208 -95 42
-6 42 -6 42 27 0 18 -13 91 -30 164 -16 72 -31 151 -32 176 l-3 45 -27 -35z"/>
<path d="M6810 3250 c0 -29 61 -103 102 -123 31 -15 44 -16 77 -7 36 9 81 49
81 71 0 5 -15 9 -32 9 -49 0 -159 28 -195 50 -32 19 -33 19 -33 0z"/>
<path d="M3038 4424 c-3 -5 -8 -38 -12 -74 -15 -140 -64 -337 -127 -508 l-31
-84 43 -44 c24 -24 47 -44 50 -44 17 0 86 209 134 403 18 76 39 145 46 154 29
34 91 39 102 8 14 -35 -80 -374 -153 -552 -59 -144 -64 -137 83 -130 290 15
507 97 610 233 68 89 82 206 35 306 -31 66 -120 158 -202 207 -69 41 -227 96
-316 110 -101 16 -257 25 -262 15z"/>
<path d="M2690 3770 c-36 -36 -17 -98 43 -144 41 -32 45 -32 56 -3 5 12 18 46
30 75 l21 53 -42 19 c-55 25 -83 25 -108 0z"/>
<path d="M2826 3658 c-14 -35 -26 -66 -26 -69 0 -7 79 -29 104 -29 14 0 46 47
46 68 0 14 -71 92 -84 92 -7 0 -25 -28 -40 -62z"/>
<path d="M4255 3314 c-27 -10 -52 -30 -75 -62 -19 -25 -68 -82 -109 -125 l-74
-77 13 -41 14 -42 76 79 c75 78 230 265 230 278 0 10 -32 6 -75 -10z"/>
<path d="M4043 3230 c-112 -56 -185 -115 -213 -171 -20 -39 -27 -119 -11 -119
14 0 131 102 131 114 0 6 -9 26 -21 45 -28 46 -15 52 21 10 l30 -34 27 32 c16
17 57 63 92 102 34 39 59 71 53 71 -6 0 -54 -22 -109 -50z"/>
<path d="M3900 2959 l-65 -60 29 -24 30 -24 49 41 c45 38 49 44 43 76 -3 20
-9 39 -13 43 -4 4 -37 -19 -73 -52z"/>
<path d="M3966 2864 c-15 -14 -27 -26 -25 -28 13 -11 52 -27 56 -23 2 3 3 21
1 40 l-3 35 -29 -24z"/>
<path d="M3731 2835 c-29 -19 -55 -36 -58 -38 -2 -3 10 -15 28 -28 l32 -22 41
22 c22 13 54 33 70 46 l29 23 -31 16 c-41 21 -48 20 -111 -19z"/>
<path d="M3847 2776 c-37 -23 -67 -44 -67 -48 0 -11 62 -28 107 -28 36 0 50 6
74 29 38 39 37 53 -10 72 l-38 16 -66 -41z"/>
<path d="M5516 1469 c-25 -28 -46 -55 -46 -60 0 -5 17 -9 38 -9 39 0 39 0 52
55 7 30 11 58 8 60 -3 3 -26 -17 -52 -46z"/>
<path d="M5830 1479 c-16 -34 -30 -65 -30 -69 0 -12 69 0 102 17 68 34 59 113
-12 113 -26 0 -33 -7 -60 -61z"/>
<path d="M6842 1274 c-21 -14 -31 -54 -14 -54 11 0 37 30 45 53 8 21 -2 22
-31 1z"/>
<path d="M2477 1383 c-32 -34 -56 -89 -50 -114 16 -59 103 36 103 111 0 38
-18 39 -53 3z"/>
<path d="M2677 1383 c-32 -34 -59 -96 -51 -117 7 -19 18 -20 46 -5 39 21 78
149 45 149 -7 0 -25 -12 -40 -27z"/>
<path d="M4078 1383 c-35 -38 -48 -66 -48 -102 0 -23 5 -31 18 -31 38 0 82 71
82 131 0 37 -18 37 -52 2z"/>
<path d="M5163 1383 c-17 -18 -33 -42 -36 -53 -5 -20 -5 -20 22 0 40 27 53 46
49 67 -3 15 -9 13 -35 -14z"/>
</g>
</svg>
